<svg width="100%" height="100%" viewBox="0 0 1004 1639" version="1.1" xmlns="http://www.w3.org/2000/svg">
    <g id="Bridge">
        <path d="M107.04,989.25l-0,239.628l157.978,161.606l-0,-401.234l-157.978,-0Z" style="fill:#e23932;fill-rule:nonzero;"/>
        <path d="M265.015,989.25l0,401.234l157.989,161.605l0,-562.839l-157.989,-0Z" style="fill:#ffc000;fill-rule:nonzero;"/>
        <path d="M423.001,989.25l-0,562.839l78.988,80.808l79,-80.808l0,-562.839l-157.988,-0Z" style="fill:#f1dfaa;fill-rule:nonzero;"/>
        <path d="M580.986,989.25l0,562.839l157.978,-161.605l-0,-401.234l-157.978,-0Z" style="fill:#3fbcb2;fill-rule:nonzero;"/>
        <path d="M738.961,989.25l0,401.234l157.989,-161.606l0,-239.628l-157.989,-0Z" style="fill:#166f83;fill-rule:nonzero;"/>
    </g>
    <path id="Wall" d="M996.422,387.023l-99.477,160.881l-0,441.35l-157.987,-0l0,-204.09c0,-130.875 -106.091,-236.966 -236.966,-236.966c-130.875,0 -236.967,106.091 -236.967,236.966l0,204.09l-157.991,-0l0,-441.35l-99.479,-160.884l0.007,-0l-0,-186.885l266.476,-0l0,186.885l94.72,-0l0,-186.885l266.476,-0l0,186.885l94.72,-0l0,-186.885l266.476,-0l0,186.888l-0.008,0Z" style="fill:#b8c0c8;"/>
    <g id="Door">
        <path d="M474.871,848.536c-24.726,-10.557 -42.074,-35.103 -42.074,-63.669c0,-38.19 31.005,-69.194 69.195,-69.194c38.189,-0 69.194,31.004 69.194,69.194c0,28.566 -17.348,53.112 -42.074,63.669l0,75.497l-54.241,0l-0,-75.497Z" style="fill:#fff;"/>
        <path d="M265.025,989.254l0,-204.09c0,-130.875 106.092,-236.966 236.967,-236.966c130.875,0 236.966,106.091 236.966,236.966l0,204.09l-473.933,-0Zm209.846,-140.718l-0,75.497l54.241,0l0,-75.497c24.726,-10.557 42.074,-35.103 42.074,-63.669c0,-38.19 -31.005,-69.194 -69.194,-69.194c-38.19,-0 -69.195,31.004 -69.195,69.194c0,28.566 17.348,53.112 42.074,63.669Z" style="fill:#253340;"/>
    </g>
    <g id="Flag">
        <rect x="474.869" y="6.813" width="54.242" height="193.322" style="fill:#fff;"/>
        <path class="switchable" d="M529.11,160.741l0,-153.928l220.437,76.959l-220.437,76.969Z" style="fill:#e23932;fill-rule:nonzero;"/>
    </g>
</svg>
