<svg width="100%" height="100%" viewBox="0 0 2914 1632" version="1.1" xmlns="http://www.w3.org/2000/svg" xml:space="preserve">
    <style>
        .switchable {
            fill:#253340;
        }
        @media (prefers-color-scheme: dark) {
            .switchable {
                fill:#ffffff;
            }
        }
    </style>
    <g id="Logo">
        <g id="Bridge">
            <path d="M100.523,982.772l-0,239.629l157.977,161.605l0,-401.234l-157.977,0Z" style="fill:#e23932;fill-rule:nonzero;"/>
            <path d="M258.498,982.772l-0,401.234l157.989,161.606l-0,-562.84l-157.989,0Z" style="fill:#ffc000;fill-rule:nonzero;"/>
            <path d="M416.483,982.772l0,562.84l78.989,80.808l79,-80.808l-0,-562.84l-157.989,0Z" style="fill:#f1dfaa;fill-rule:nonzero;"/>
            <path d="M574.469,982.772l-0,562.84l157.977,-161.606l0,-401.234l-157.977,0Z" style="fill:#3fbcb2;fill-rule:nonzero;"/>
            <path d="M732.444,982.772l-0,401.234l157.989,-161.605l-0,-239.629l-157.989,0Z" style="fill:#166f83;fill-rule:nonzero;"/>
        </g>
        <path id="Wall" d="M989.904,380.546l-99.477,160.881l0,441.349l-157.986,0l-0,-204.089c-0,-130.875 -106.092,-236.966 -236.967,-236.966c-130.875,-0 -236.966,106.091 -236.966,236.966l-0,204.089l-157.991,0l-0,-441.349l-99.479,-160.885l0.006,0l0,-186.885l266.477,0l-0,186.885l94.72,0l-0,-186.885l266.476,0l-0,186.885l94.72,0l-0,-186.885l266.476,0l0,186.889l-0.009,-0Z" style="fill:#b8c0c8;"/>
        <g id="Door">
            <path d="M468.353,842.058c-24.725,-10.557 -42.073,-35.103 -42.073,-63.669c-0,-38.189 31.005,-69.194 69.194,-69.194c38.19,0 69.195,31.005 69.195,69.194c-0,28.566 -17.348,53.112 -42.074,63.669l0,75.498l-54.242,-0l0,-75.498Z" style="fill:#fff;"/>
            <path d="M258.508,982.776l-0,-204.089c-0,-130.875 106.091,-236.966 236.966,-236.966c130.875,-0 236.967,106.091 236.967,236.966l-0,204.089l-473.933,0Zm209.845,-140.718l0,75.498l54.242,-0l0,-75.498c24.726,-10.557 42.074,-35.103 42.074,-63.669c-0,-38.189 -31.005,-69.194 -69.195,-69.194c-38.189,0 -69.194,31.005 -69.194,69.194c-0,28.566 17.348,53.112 42.073,63.669Z" style="fill:#253340;"/>
        </g>
        <g id="Flag">
            <rect class="switchable artwork" x="468.351" y="0.336" width="54.242" height="193.322"/>
            <path d="M522.593,154.264l-0,-153.928l220.436,76.958l-220.436,76.97Z" style="fill:#e23932;fill-rule:nonzero;"/>
        </g>
    </g>
    <g id="Title">
        <g id="Name" class="switchable text">
            <path d="M1081.07,788.396l170.159,0c45.035,0 78.812,9.135 101.33,27.404c22.518,17.845 33.777,46.948 33.777,87.31c-0,24.217 -3.611,43.549 -10.834,57.994c-7.223,14.021 -19.544,26.554 -36.963,37.601c19.119,8.072 33.139,19.756 42.061,35.051c9.347,15.295 14.021,36.539 14.021,63.73c-0,42.062 -12.321,73.289 -36.963,93.683c-24.643,20.393 -59.269,30.59 -103.88,30.59l-172.708,0l0,-433.363Zm168.247,252.37l-80.3,0l0,105.792l80.3,-0c19.119,-0 33.139,-3.824 42.061,-11.471c9.348,-7.648 14.021,-21.669 14.021,-42.062c0,-34.839 -18.694,-52.259 -56.082,-52.259Zm-2.549,-177.168l-77.751,-0l0,103.242l78.388,-0c33.139,-0 49.709,-17.207 49.709,-51.621c0,-34.414 -16.782,-51.621 -50.346,-51.621Z" style="fill-rule:nonzero;"/>
            <path d="M1461.54,1221.76l0,-318.649l85.398,0l0,318.649l-85.398,0Zm0,-359.436l0,-86.673l85.398,0l0,86.673l-85.398,-0Z" style="fill-rule:nonzero;"/>
            <path d="M1726.65,975.762l0,245.997l-85.398,0l0,-245.997l-34.414,0l0,-72.652l34.414,0l0,-14.021c0,-45.885 6.798,-77.538 20.394,-94.957c13.595,-17.419 37.813,-26.129 72.652,-26.129c15.295,-0 35.051,2.124 59.269,6.373l13.383,1.912l-1.275,69.465c-18.694,-0.85 -34.414,-1.274 -47.16,-1.274c-12.746,-0 -21.243,3.398 -25.492,10.196c-4.248,6.798 -6.373,18.482 -6.373,35.052l0,13.383l77.113,0l0,72.652l-77.113,0Z" style="fill-rule:nonzero;"/>
            <path d="M1853.48,1221.76l-0,-318.649l84.76,0l0,33.777c35.689,-21.243 69.678,-35.052 101.968,-41.425l-0,86.036c-34.414,7.222 -63.942,14.658 -88.584,22.305l-12.746,4.461l-0,213.495l-85.398,0Z" style="fill-rule:nonzero;"/>
            <path d="M2107.76,939.436c22.517,-29.316 60.118,-43.974 112.801,-43.974c52.684,0 90.284,14.658 112.802,43.974c22.518,28.891 33.777,69.678 33.777,122.361c-0,111.74 -48.86,167.61 -146.579,167.61c-97.719,-0 -146.578,-55.87 -146.578,-167.61c-0,-52.683 11.259,-93.47 33.777,-122.361Zm65.641,194.376c8.922,15.295 24.643,22.943 47.16,22.943c22.518,-0 38.026,-7.648 46.523,-22.943c8.922,-15.295 13.383,-39.3 13.383,-72.015c0,-32.714 -4.461,-56.507 -13.383,-71.377c-8.497,-14.87 -24.005,-22.306 -46.523,-22.306c-22.517,0 -38.238,7.436 -47.16,22.306c-8.497,14.87 -12.746,38.663 -12.746,71.377c0,32.715 4.249,56.72 12.746,72.015Zm-63.092,-291.883l-0,-84.123l81.574,0l-0,84.123l-81.574,0Zm137.656,0l0,-84.123l81.574,0l0,84.123l-81.574,0Z" style="fill-rule:nonzero;"/>
            <path d="M2658.39,982.772c-52.683,-6.798 -89.646,-10.196 -110.89,-10.196c-20.818,-0 -34.414,1.911 -40.787,5.735c-5.948,3.824 -8.922,9.985 -8.922,18.482c0,8.072 4.036,13.808 12.109,17.207c8.497,2.974 29.74,7.647 63.73,14.02c34.414,5.949 58.843,15.933 73.289,29.953c14.445,14.021 21.668,36.751 21.668,68.191c0,68.829 -42.699,103.243 -128.097,103.243c-28.041,-0 -62.03,-3.824 -101.968,-11.472l-20.393,-3.823l2.549,-71.378c52.683,6.798 89.222,10.197 109.615,10.197c20.819,-0 34.839,-1.912 42.062,-5.736c7.648,-4.248 11.471,-10.409 11.471,-18.481c0,-8.073 -4.036,-14.021 -12.108,-17.845c-7.648,-3.824 -28.041,-8.497 -61.181,-14.02c-32.715,-5.524 -57.144,-14.871 -73.289,-28.041c-16.145,-13.171 -24.218,-36.539 -24.218,-70.103c0,-33.989 11.472,-59.481 34.415,-76.476c22.942,-17.42 52.47,-26.129 88.584,-26.129c25.067,-0 59.269,4.036 102.605,12.108l21.031,3.824l-1.275,70.74Z" style="fill-rule:nonzero;"/>
            <path d="M2906.93,975.762l-78.388,0l-0,130.646c-0,12.746 0.212,21.881 0.637,27.404c0.85,5.098 3.187,9.559 7.011,13.383c4.248,3.824 10.621,5.736 19.118,5.736l48.435,-1.275l3.824,68.191c-28.466,6.373 -50.134,9.56 -65.005,9.56c-38.237,-0 -64.367,-8.498 -78.387,-25.492c-14.021,-17.42 -21.031,-49.285 -21.031,-95.595l-0,-132.558l-37.601,0l0,-72.652l37.601,0l-0,-88.584l85.398,-0l-0,88.584l78.388,0l-0,72.652Z" style="fill-rule:nonzero;"/>
        </g>
        <g id="Engity">
            <path class="switchable text" d="M1590.22,582.007l-28.016,0l-0,-15.018c-0,-17.151 -13.954,-31.105 -31.105,-31.105c-17.15,-0 -31.102,13.954 -31.102,31.105l0,15.018l-28.016,0l0,-15.018c0,-32.598 26.523,-59.121 59.118,-59.121c32.598,0 59.121,26.523 59.121,59.121l-0,15.018Z" style="fill-rule:nonzero;"/>
            <path class="switchable text" d="M1087.16,717.415c-4.059,-4.056 -6.088,-9.367 -6.088,-15.93l0,-159.314l132.892,0l-0,26.164l-102.584,0l0,49.22l94.81,0l0,26.42l-94.81,0l0,53.366l102.584,0l-0,26.162l-110.613,0c-6.736,0 -12.135,-2.027 -16.191,-6.088" style="fill-rule:nonzero;"/>
            <path class="switchable text" d="M1254.37,542.172l27.199,0l91.704,132.629l0,-132.629l29.531,0l0,181.332l-27.46,0l-91.443,-132.114l-0,132.114l-29.531,0l-0,-181.332Z" style="fill-rule:nonzero;"/>
            <path d="M1606.19,620.083l0,-33.341l-75.084,-33.577l-78.169,33.412l0,93.796c0,50.492 69.128,74.853 72.071,75.867l4.556,1.566l4.555,-1.566c2.943,-1.014 72.071,-25.375 72.071,-75.867l0,-34.859l-73.795,0l-0,28.016l45.78,0l-0,6.843c-0,23.046 -31.743,40.759 -48.609,47.641c-16.887,-6.891 -48.613,-24.602 -48.613,-47.641l0,-75.301l49.9,-21.331l47.322,21.165l-0,15.177l28.015,0Z" style="fill:#ffc000;fill-rule:nonzero;"/>
            <rect class="switchable text" x="1656.32" y="542.173" width="30.308" height="181.332"/>
            <path class="switchable text" d="M1781.96,568.335l-57.507,-0l-0,-26.162l145.323,-0l-0,26.162l-57.51,-0l-0,155.167l-30.306,0l0,-155.167Z" style="fill-rule:nonzero;"/>
            <path class="switchable text" d="M1955.51,653.302l-67.091,-111.129l32.897,-0l49.218,83.411l49.22,-83.411l32.897,-0l-67.091,111.129l-0,70.2l-30.05,0l0,-70.2Z" style="fill-rule:nonzero;"/>
            <path class="switchable text" d="M2065.32,587.539l-0.593,-45.366l25.123,-0l-11.061,45.366l-13.469,0Z" style="fill-rule:nonzero;"/>
            <path class="switchable text" d="M2148.64,642.763c-15.567,-2.111 -26.847,-3.167 -33.839,-3.167c-6.992,0 -11.874,0.858 -14.644,2.573c-2.639,1.583 -3.958,4.156 -3.958,7.718c-0,3.562 1.451,6.068 4.354,7.52c3.034,1.451 10.026,3.166 20.976,5.145c11.082,1.847 18.932,4.815 23.549,8.905c4.618,4.09 6.926,11.346 6.926,21.768c0,10.422 -3.364,18.074 -10.092,22.955c-6.596,4.882 -16.293,7.322 -29.09,7.322c-8.048,0 -18.206,-1.121 -30.475,-3.364l-6.135,-0.989l0.791,-18.008c15.832,2.11 27.244,3.166 34.236,3.166c6.992,-0 11.939,-0.858 14.842,-2.573c3.034,-1.715 4.551,-4.551 4.551,-8.509c0,-3.958 -1.451,-6.662 -4.353,-8.114c-2.771,-1.583 -9.565,-3.232 -20.383,-4.947c-10.687,-1.847 -18.536,-4.683 -23.549,-8.509c-5.014,-3.826 -7.52,-10.818 -7.52,-20.977c-0,-10.158 3.43,-17.744 10.29,-22.757c6.992,-5.014 15.897,-7.52 26.715,-7.52c8.444,-0 18.8,1.055 31.069,3.166l6.135,1.187l-0.396,18.009Z" style="fill-rule:nonzero;"/>
        </g>
    </g>
</svg>
