<svg width="100%" height="100%" viewBox="0 0 1004 1639" version="1.1" xmlns="http://www.w3.org/2000/svg" xmlns:xlink="http://www.w3.org/1999/xlink" xml:space="preserve">
    <g id="Main">
        <g id="Bridge">
            <path d="M107.217,989.324l0,239.629l157.978,161.606l-0,-401.235l-157.978,0Z" style="fill:#e23932;fill-rule:nonzero;"/>
            <path d="M265.193,989.324l-0,401.235l157.988,161.605l0,-562.84l-157.988,0Z" style="fill:#ffc000;fill-rule:nonzero;"/>
            <path d="M423.178,989.324l0,562.84l78.989,80.808l79,-80.808l-0,-562.84l-157.989,0Z" style="fill:#f1dfaa;fill-rule:nonzero;"/>
            <path d="M581.163,989.324l0,562.84l157.978,-161.605l-0,-401.235l-157.978,0Z" style="fill:#3fbcb2;fill-rule:nonzero;"/>
            <path d="M739.139,989.324l-0,401.235l157.988,-161.606l0,-239.629l-157.988,0Z" style="fill:#166f83;fill-rule:nonzero;"/>
        </g>
        <path id="Wall" d="M996.599,387.098l-99.477,160.881l-0,441.35l-157.987,-0l0,-204.09c0,-130.875 -106.091,-236.966 -236.966,-236.966c-130.875,-0 -236.966,106.091 -236.966,236.966l-0,204.09l-157.991,-0l-0,-441.35l-99.479,-160.884l0.006,-0l0,-186.885l266.476,-0l0,186.885l94.72,-0l0,-186.885l266.477,-0l-0,186.885l94.72,-0l-0,-186.885l266.476,-0l-0,186.888l-0.009,0Z" style="fill:#b8c0c8;"/>
        <g id="Door">
            <path d="M475.048,848.611c-24.726,-10.557 -42.073,-35.103 -42.073,-63.669c-0,-38.19 31.005,-69.195 69.194,-69.195c38.189,0 69.194,31.005 69.194,69.195c0,28.566 -17.347,53.112 -42.073,63.669l-0,75.497l-54.242,0l0,-75.497Z" style="fill:#fff;"/>
            <path d="M265.203,989.329l-0,-204.09c-0,-130.875 106.091,-236.966 236.966,-236.966c130.875,-0 236.966,106.091 236.966,236.966l0,204.09l-473.932,-0Zm209.845,-140.718l0,75.497l54.242,0l-0,-75.497c24.726,-10.557 42.073,-35.103 42.073,-63.669c0,-38.19 -31.005,-69.195 -69.194,-69.195c-38.189,0 -69.194,31.005 -69.194,69.195c-0,28.566 17.347,53.112 42.073,63.669Z" style="fill:#253340;"/>
        </g>
        <g id="Flag">
            <rect x="475.046" y="6.888" width="54.242" height="193.322" style="fill:#253340;"/>
            <path d="M529.288,160.816l-0,-153.928l220.436,76.959l-220.436,76.969Z" style="fill:#e23932;fill-rule:nonzero;"/>
        </g>
    </g>
</svg>
