<svg width="1128px" height="1128px" version="1.1" xmlns="http://www.w3.org/2000/svg" xmlns:xlink="http://www.w3.org/1999/xlink" xml:space="preserve" xmlns:serif="http://www.serif.com/" style="fill-rule:evenodd;clip-rule:evenodd;stroke-linejoin:round;stroke-miterlimit:2;">
    <path d="M836.463,336.484l-126.014,-0l0,-67.555c0,-77.142 -62.766,-139.908 -139.908,-139.908c-77.143,-0 -139.898,62.766 -139.898,139.908l-0,67.555l-126.014,-0l-0,-67.555c-0,-146.625 119.297,-265.922 265.912,-265.922c146.625,-0 265.922,119.297 265.922,265.922l0,67.555Z" style="fill:#fff;fill-rule:nonzero;"/>
    <path d="M908.277,507.749l0,-149.968l-337.729,-151.03l-351.601,150.285l-0,421.896c-0,227.11 310.937,336.688 324.174,341.246l20.491,7.046l20.491,-7.046c13.237,-4.558 324.174,-114.136 324.174,-341.246l0,-156.795l-331.932,0l-0,126.014l205.918,0l0,30.781c0,103.66 -142.78,183.334 -218.64,214.29c-75.959,-31 -218.662,-110.663 -218.662,-214.29l-0,-338.704l224.448,-95.947l212.854,95.201l0,68.267l126.014,0Z" style="fill:#ffd000;fill-rule:nonzero;"/>
</svg>
